<svg xmlns="http://www.w3.org/2000/svg" xmlns:xlink="http://www.w3.org/1999/xlink" width="540.737" height="434.739" viewBox="0 0 143.07 115.025"><defs><linearGradient id="b" spreadMethod="pad" gradientTransform="scale(-9.70292 9.70292) rotate(65.592 -10.479 -6.477)" gradientUnits="userSpaceOnUse" y2="0" x2="1" y1="0" x1="0"><stop offset="0" stop-color="#3194a2"/><stop offset="1" stop-color="#03707f"/></linearGradient><linearGradient id="a" spreadMethod="pad" gradientTransform="matrix(4.38075 9.0585 9.0585 -4.38075 74.08 55.316)" gradientUnits="userSpaceOnUse" y2="0" x2="1" y1="0" x1="0"><stop offset="0" stop-color="#3194a2"/><stop offset="1" stop-color="#03707f"/></linearGradient><linearGradient xlink:href="#a" id="c" gradientUnits="userSpaceOnUse" gradientTransform="matrix(4.38075 9.0585 9.0585 -4.38075 74.08 55.316)" x1="0" y1="0" x2="1" y2="0" spreadMethod="pad"/><linearGradient xlink:href="#b" id="d" gradientUnits="userSpaceOnUse" gradientTransform="scale(-9.70292 9.70292) rotate(65.592 -10.479 -6.477)" x1="0" y1="0" x2="1" y2="0" spreadMethod="pad"/></defs><path d="M76.594 75.111L66.165 53.407a.419.419 0 0 1 .378-.6h13.12c.162 0 .308.091.378.237l4.134 8.593a.418.418 0 0 1-.005.376l-6.827 13.11a.413.413 0 0 1-.371.226.413.413 0 0 1-.378-.238" fill="url(#c)" transform="matrix(2.42517 0 0 -2.42517 -160.36 229.375)"/><path d="M113.897 75.123l-6.827-13.11a.422.422 0 0 1-.006-.376l4.136-8.593a.414.414 0 0 1 .377-.237h13.12c.309 0 .512.322.378.6l-10.429 21.704a.413.413 0 0 1-.377.238.414.414 0 0 1-.372-.226" fill="url(#d)" transform="matrix(2.42517 0 0 -2.42517 -160.36 229.375)"/><path d="M120.688 30.97H86.28c-.621 0-1.196.327-1.513.863L72.682 52.299c-.696 1.178-2.413 1.142-3.06-.066L42.163.93A1.753 1.753 0 0 0 40.616 0H4.01C2.643 0 1.802 1.491 2.505 2.663l67.102 111.511a1.756 1.756 0 0 0 3 .015l49.577-80.542c.72-1.172-.123-2.678-1.496-2.678" fill="#39b3c2"/></svg>