<svg version="1.1" xmlns="http://www.w3.org/2000/svg" viewBox="0 0 415.62260296347677 387.1399690485545" width="1246.8678088904303" height="1161.4199071456635" filter="invert(93%) hue-rotate(180deg)">
  <!-- svg-source:excalidraw -->
  
  <defs>
    <style class="style-fonts">
      @font-face {
        font-family: "Virgil";
        src: url("https://excalidraw.com/Virgil.woff2");
      }
      @font-face {
        font-family: "Cascadia";
        src: url("https://excalidraw.com/Cascadia.woff2");
      }
    </style>
    
  </defs>
  <rect x="0" y="0" width="415.62260296347677" height="387.1399690485545" fill="#ffffff"></rect><g mask="url(#mask-cqSsrl9NKIhFESNh-V58U)" stroke-linecap="round"><g transform="translate(72.84466079504352 282.02537440680925) rotate(0 -1.1043508836481237 -135.94007066781643)"><path d="M-0.12 0.15 C-0.49 -45.17, -1.83 -226.47, -2.2 -271.8 M0.09 0.09 C-0.3 -45.28, -1.94 -226.73, -2.3 -272.03" stroke="#1971c2" stroke-width="1" fill="none"></path></g><g transform="translate(72.84466079504352 282.02537440680925) rotate(0 -1.1043508836481237 -135.94007066781643)"><path d="M8.2 -243.92 C5.14 -252.74, 1.7 -261.94, -2.3 -272.03 M8.2 -243.92 C4.68 -253.11, 1.25 -262.32, -2.3 -272.03" stroke="#1971c2" stroke-width="1" fill="none"></path></g><g transform="translate(72.84466079504352 282.02537440680925) rotate(0 -1.1043508836481237 -135.94007066781643)"><path d="M-12.32 -243.75 C-8.9 -252.59, -5.85 -261.85, -2.3 -272.03 M-12.32 -243.75 C-9.15 -253, -5.88 -262.27, -2.3 -272.03" stroke="#1971c2" stroke-width="1" fill="none"></path></g></g><mask id="mask-cqSsrl9NKIhFESNh-V58U"><rect x="0" y="0" fill="#fff" width="175.0893490559074" height="653.910779765064"></rect><rect x="41.63235084429908" y="133.58267172768188" fill="#000" width="60.179931640625" height="25" opacity="1"></rect></mask><g transform="translate(41.63235084429908 133.58267172768188) rotate(0 30.107959067096317 12.502632011310936)"><text x="30.0899658203125" y="0" font-family="Virgil, Segoe UI Emoji" font-size="20px" fill="#1971c2" text-anchor="middle" style="white-space: pre;" direction="ltr" dominant-baseline="text-before-edge">Grado</text></g><g mask="url(#mask-GZWGOIje17k2bRMMKWJAM)" stroke-linecap="round"><g transform="translate(76.57951693890436 273.26817109453094) rotate(0 164.4729373065106 -0.9963357628193421)"><path d="M-0.1 0.13 C54.73 -0.22, 274.19 -1.73, 329.04 -2.12 M0.13 0.06 C54.93 -0.26, 274.14 -1.56, 328.94 -1.93" stroke="#e8590c" stroke-width="1" fill="none"></path></g><g transform="translate(76.57951693890436 273.26817109453094) rotate(0 164.4729373065106 -0.9963357628193421)"><path d="M300.81 8.51 C311 4.89, 320.7 1.13, 328.94 -1.93 M300.81 8.51 C306.97 6.34, 313.32 4.02, 328.94 -1.93" stroke="#e8590c" stroke-width="1" fill="none"></path></g><g transform="translate(76.57951693890436 273.26817109453094) rotate(0 164.4729373065106 -0.9963357628193421)"><path d="M300.68 -12.01 C310.91 -8.38, 320.66 -4.88, 328.94 -1.93 M300.68 -12.01 C306.85 -9.64, 313.23 -7.41, 328.94 -1.93" stroke="#e8590c" stroke-width="1" fill="none"></path></g></g><mask id="mask-GZWGOIje17k2bRMMKWJAM"><rect x="0" y="0" fill="#fff" width="505.59997253417964" height="375.39637314050736"></rect><rect x="207.50978105245997" y="259.7040700715427" fill="#000" width="67.15992736816406" height="25" opacity="1"></rect></mask><g transform="translate(207.50978105245997 259.7040700715428) rotate(0 33.54267319295499 12.56776526016887)"><text x="33.57996368408203" y="0" font-family="Virgil, Segoe UI Emoji" font-size="20px" fill="#f08c00" text-anchor="middle" style="white-space: pre;" direction="ltr" dominant-baseline="text-before-edge">Fuerza</text></g><g mask="url(#mask-3koyCMuujM-28Dh8C54PJ)" stroke-linecap="round"><g transform="translate(75.30764311203171 273.1302328814418) rotate(0 111.74707300938482 -109.60066415467098)"><path d="M0.3 -0.83 C37.74 -37.77, 187.13 -184, 224.49 -220.55 M-1 1.35 C36.31 -34.92, 186.19 -182.61, 223.65 -219.31" stroke="#2f9e44" stroke-width="1" fill="none"></path></g><g transform="translate(75.30764311203171 273.1302328814418) rotate(0 111.74707300938482 -109.60066415467098)"><path d="M210.73 -192.23 C212.83 -199.74, 217 -207.62, 223.65 -219.31 M210.73 -192.23 C213.64 -199.72, 218.65 -208.87, 223.65 -219.31" stroke="#2f9e44" stroke-width="1" fill="none"></path></g><g transform="translate(75.30764311203171 273.1302328814418) rotate(0 111.74707300938482 -109.60066415467098)"><path d="M196.35 -206.87 C202.73 -210.19, 211.04 -213.86, 223.65 -219.31 M196.35 -206.87 C203.49 -210.1, 212.68 -215.01, 223.65 -219.31" stroke="#2f9e44" stroke-width="1" fill="none"></path></g></g><mask id="mask-3koyCMuujM-28Dh8C54PJ"><rect x="0" y="0" fill="#fff" width="399.59997253417964" height="593.1204967143292"></rect><rect x="141.3638572615822" y="150.63510096499817" fill="#000" width="92.17990112304688" height="25" opacity="1"></rect></mask><g transform="translate(141.3638572615822 150.63510096499817) rotate(0 45.69085885983432 12.894467761772674)"><text x="46.08995056152344" y="0" font-family="Virgil, Segoe UI Emoji" font-size="20px" fill="#2f9e44" text-anchor="middle" style="white-space: pre;" direction="ltr" dominant-baseline="text-before-edge">Localidad</text></g><g transform="translate(334.59997253417964 287.1399690485545) rotate(0 25.848052978515625 10)"><text x="0" y="0" font-family="Virgil, Segoe UI Emoji" font-size="16px" fill="#f08c00" text-anchor="start" style="white-space: pre;" direction="ltr" dominant-baseline="text-before-edge">Fuerte</text></g><g transform="translate(83.59997253417964 288.91009427248184) rotate(0 19.293121337890625 10.114937388036338)"><text x="0" y="0" font-family="Virgil, Segoe UI Emoji" font-size="16.18389982085814px" fill="#f08c00" text-anchor="start" style="white-space: pre;" direction="ltr" dominant-baseline="text-before-edge">Débil</text></g><g stroke-linecap="round" transform="translate(14.599972534179642 192.13996904855452) rotate(0 72.5 78)"><path d="M86.76 1.73 C96.71 2.82, 107.43 9.22, 115.87 15.88 C124.32 22.55, 132.63 31.79, 137.43 41.71 C142.23 51.63, 144.38 64.2, 144.68 75.41 C144.98 86.62, 143.45 98.63, 139.23 108.99 C135 119.34, 127.59 130.26, 119.33 137.53 C111.07 144.79, 99.79 149.63, 89.65 152.57 C79.51 155.51, 68.66 157.17, 58.5 155.17 C48.34 153.16, 37.07 147.39, 28.71 140.54 C20.36 133.7, 13.21 124.04, 8.37 114.09 C3.53 104.14, 0.05 92.12, -0.33 80.84 C-0.72 69.56, 1.68 56.94, 6.07 46.42 C10.47 35.89, 17.84 25.19, 26.03 17.71 C34.22 10.23, 44.44 4.1, 55.2 1.55 C65.97 -0.99, 84.2 1.88, 90.62 2.44 C97.04 3, 94.07 3.68, 93.73 4.92" stroke="#9c36b5" stroke-width="1.5" fill="none" stroke-dasharray="8 9"></path></g><g transform="translate(30.599972534179642 352.1399690485545) rotate(0 63.35991668701172 12.5)"><text x="0" y="0" font-family="Virgil, Segoe UI Emoji" font-size="20px" fill="#9c36b5" text-anchor="start" style="white-space: pre;" direction="ltr" dominant-baseline="text-before-edge"> área óptima</text></g><g transform="translate(10 40.02503166051815) rotate(0 16.479202270507812 10.114937388036338)"><text x="0" y="0" font-family="Virgil, Segoe UI Emoji" font-size="16.18389982085814px" fill="#1971c2" text-anchor="start" style="white-space: pre;" direction="ltr" dominant-baseline="text-before-edge">Alto</text></g><g transform="translate(26.12077026367183 251.0250316605182) rotate(0 18.403656005859375 10.114937388036338)"><text x="0" y="0" font-family="Virgil, Segoe UI Emoji" font-size="16.18389982085814px" fill="#1971c2" text-anchor="start" style="white-space: pre;" direction="ltr" dominant-baseline="text-before-edge">Bajo</text></g><g transform="translate(219.7135687255859 55.59854682838974) rotate(0 22.134803771972656 10.770711110082381)"><text x="0" y="0" font-family="Virgil, Segoe UI Emoji" font-size="17.233137776131812px" fill="#2f9e44" text-anchor="start" style="white-space: pre;" direction="ltr" dominant-baseline="text-before-edge">Lejos</text></g><g transform="translate(82.38999633789058 204.36925793847212) rotate(0 22.908409118652344 10.270711110082374)"><text x="0" y="0" font-family="Virgil, Segoe UI Emoji" font-size="16.433137776131804px" fill="#2f9e44" text-anchor="start" style="white-space: pre;" direction="ltr" dominant-baseline="text-before-edge">Cerca</text></g></svg>